<?xml version="1.0" encoding="UTF-8"?>
<svg width="191px" height="47px" id="b" xmlns="http://www.w3.org/2000/svg" version="1.1" viewBox="0 0 191 47">
  <!-- Generator: Adobe Illustrator 30.1.0, SVG Export Plug-In . SVG Version: 2.1.1 Build 136)  -->
  <defs>
    <style>
      .st0 {
        fill: #ffd100;
        fill-rule: evenodd;
      }
    </style>
  </defs>
  <g id="c">
    <g id="d">
      <g id="e">
        <g id="f">
          <g id="g">
            <path id="k" class="st0" d="M24.5,36.98l1.05,4.37c-.59.69-1.23,1.11-1.9,1.33l-1.06-5.29-.95,5.38c-.74-.17-1.44-.57-2.09-1.26l1.09-4.53-2.1,3.11c-.51-.93-.96-2.11-1.34-3.6l-1.05-3.51c-.81,2.98-3.65,1.01-4.57-.32-3.28-4.76-4.95-10.25-5.22-13.93-.03.57-.04,1.17-.04,1.81.01,3.63,1.68,9.69,5.26,14.88.79,1.15,3.24,4.03,4.44,2.94-.06.42-.23.84-.42,1.23l-2.1,4.13v-3.39c-.32.05-.66.09-1.02.13-1.05.1-2.29.15-3.72.15v5.97h27.45v-5.97c-2.05-.05-3.47-.12-4.28-.21-.15,0-.29-.03-.43-.05v3.37l-2.16-4.27c-.18-.35-.26-.62-.32-1.02,1.22.87,3.57-1.89,4.34-3.01,3.58-5.19,5.24-11.26,5.26-14.88,0-.63,0-1.23-.04-1.81-.27,3.68-1.94,9.17-5.22,13.93-.92,1.34-3.76,3.3-4.57.32l-1.05,3.51c-.35,1.41-.78,2.55-1.25,3.45l-1.99-2.96h0ZM45.03,0v17.97h-6.28c0-1.45-.1-2.76-.29-3.93l-3.08,5.39,2.15-8.95c-.66-1.53-1.63-2.61-2.94-3.31l-2.39,7.44-.1-8.25c-.98-.17-2.09-.23-3.32-.18v20.27c.01,1.84-1.5,2.89-2.79,2.02-1.06-.71-1.3-2.61.02-3.62l1.03-.19.56.32c.24-1.72-.67-2.21-1.98-2.26-4.13-2.59-8.26,1.73-7.18,6.56.16.73.02,1.03-.43,1.15-1.23.33-1.85-.92-1.85-2.21V6.18c-1.22-.04-2.32.01-3.3.18l-.1,8.25-2.39-7.44c-1.32.7-2.28,1.78-2.94,3.31l2.15,8.95-3.07-5.37c-.2,1.17-.3,2.47-.3,3.91H0V0h45.03Z"/>
          </g>
          <path id="l" class="st0" d="M64.26,8.75h-.36c-1.46,0-2.53.44-3.19,1.32s-1.01,2.3-1.04,4.27h-2.09v-7.61h17.2v7.61h-2.09c-.02-1.94-.36-3.36-1.02-4.25-.66-.89-1.72-1.34-3.18-1.34h-.4v12.57c0,.74.1,1.21.3,1.4.2.2.71.29,1.52.29h1.55v2.09h-10.59v-2.09h1.58c.81,0,1.31-.1,1.5-.29s.29-.66.29-1.41v-12.57h.02Z"/>
          <path id="m" class="st0" d="M84.07,16.98c-.08-1.19-.32-2.07-.72-2.62s-.99-.83-1.77-.83-1.45.29-1.95.88c-.5.58-.83,1.44-.99,2.57h5.44-.01ZM85.31,20.48h2.29c-.19,1.59-.83,2.84-1.89,3.75-1.07.91-2.43,1.37-4.1,1.37-2.07,0-3.73-.63-4.96-1.89-1.23-1.26-1.85-2.95-1.85-5.06s.62-3.77,1.87-5.05c1.24-1.28,2.89-1.92,4.94-1.92s3.48.62,4.52,1.85c1.04,1.24,1.55,3.03,1.55,5.38h-9.17c.05,1.46.36,2.58.92,3.34.56.77,1.35,1.15,2.37,1.15s1.84-.23,2.37-.68c.54-.45.91-1.2,1.14-2.25h0Z"/>
          <path id="n" class="st0" d="M88.79,25.11v-1.83h.9c.62,0,1.03-.1,1.24-.29.2-.2.31-.65.31-1.35v-5.98c0-.7-.1-1.15-.31-1.34-.2-.19-.62-.29-1.24-.29h-.9v-1.85h5.74v2.27c.71-.89,1.44-1.56,2.19-2.01.75-.45,1.51-.67,2.28-.67,1.48,0,2.54.37,3.19,1.1.65.73.97,1.95.97,3.66v5.1c0,.7.1,1.15.31,1.35s.62.29,1.24.29h.8v1.83h-7.73v-1.83h.55c.62,0,1.03-.1,1.24-.29.21-.2.31-.65.31-1.35v-5.1c0-.95-.16-1.64-.47-2.05s-.83-.62-1.55-.62c-1.03,0-1.84.39-2.43,1.18-.59.78-.89,1.86-.89,3.24v3.34c0,.7.1,1.15.31,1.35s.62.29,1.24.29h.54v1.83h-7.84v.02Z"/>
          <path id="o" class="st0" d="M106.36,25.11v-1.83h.9c.62,0,1.03-.1,1.24-.29.2-.2.31-.65.31-1.35v-5.98c0-.7-.1-1.15-.31-1.34-.2-.19-.62-.29-1.24-.29h-.9v-1.85h5.74v2.27c.71-.89,1.44-1.56,2.19-2.01.75-.45,1.51-.67,2.28-.67,1.48,0,2.54.37,3.19,1.1.65.73.97,1.95.97,3.66v5.1c0,.7.1,1.15.31,1.35s.62.29,1.24.29h.8v1.83h-7.73v-1.83h.54c.62,0,1.03-.1,1.24-.29.21-.2.31-.65.31-1.35v-5.1c0-.95-.16-1.64-.47-2.05s-.83-.62-1.55-.62c-1.03,0-1.84.39-2.43,1.18-.59.78-.89,1.86-.89,3.24v3.34c0,.7.1,1.15.31,1.35s.62.29,1.24.29h.54v1.83h-7.84v.02Z"/>
          <path id="p" class="st0" d="M132.56,16.98c-.08-1.19-.32-2.07-.72-2.62s-.99-.83-1.77-.83-1.45.29-1.95.88c-.5.58-.83,1.44-.99,2.57h5.44,0ZM133.8,20.48h2.29c-.19,1.59-.83,2.84-1.89,3.75-1.07.91-2.43,1.37-4.1,1.37-2.07,0-3.73-.63-4.96-1.89s-1.85-2.95-1.85-5.06.62-3.77,1.87-5.05,2.89-1.92,4.94-1.92,3.48.62,4.52,1.85c1.04,1.24,1.55,3.03,1.55,5.38h-9.17c.05,1.46.36,2.58.92,3.34.56.77,1.35,1.15,2.37,1.15s1.84-.23,2.37-.68c.54-.45.91-1.2,1.14-2.25h0Z"/>
          <path id="q" class="st0" d="M137.58,25.27v-5.28h1.99c.26,1.18.76,2.08,1.51,2.7s1.69.94,2.82.94c.69,0,1.24-.15,1.66-.46s.63-.72.63-1.24c0-.41-.17-.74-.51-1-.34-.25-.93-.49-1.78-.7l-2.02-.48c-1.41-.35-2.45-.85-3.14-1.5-.68-.65-1.02-1.49-1.02-2.49,0-1.21.46-2.19,1.37-2.94.91-.75,2.12-1.12,3.61-1.12.71,0,1.38.11,2.02.33s1.26.55,1.86,1l.6-1.02h1.55v4.79h-1.85c-.27-.99-.76-1.76-1.46-2.31-.7-.55-1.54-.83-2.51-.83-.65,0-1.15.14-1.52.41-.37.27-.55.65-.55,1.13,0,.35.12.64.37.86.25.23.63.4,1.16.53l2.47.58c1.59.38,2.75.91,3.48,1.59s1.09,1.56,1.09,2.65c0,1.3-.46,2.33-1.38,3.08s-2.19,1.12-3.81,1.12c-.81,0-1.55-.11-2.23-.34s-1.39-.6-2.11-1.12l-.49,1.15h-1.81v-.03Z"/>
          <path id="r" class="st0" d="M150.67,25.27v-5.28h1.99c.26,1.18.76,2.08,1.51,2.7s1.69.94,2.82.94c.69,0,1.24-.15,1.66-.46s.63-.72.63-1.24c0-.41-.17-.74-.51-1-.34-.25-.93-.49-1.78-.7l-2.02-.48c-1.41-.35-2.45-.85-3.14-1.5-.68-.65-1.02-1.49-1.02-2.49,0-1.21.46-2.19,1.37-2.94.91-.75,2.12-1.12,3.61-1.12.71,0,1.38.11,2.02.33s1.26.55,1.86,1l.6-1.02h1.55v4.79h-1.85c-.27-.99-.76-1.76-1.46-2.31-.7-.55-1.54-.83-2.51-.83-.65,0-1.15.14-1.52.41-.37.27-.55.65-.55,1.13,0,.35.12.64.37.86.25.23.63.4,1.16.53l2.47.58c1.59.38,2.75.91,3.48,1.59s1.09,1.56,1.09,2.65c0,1.3-.46,2.33-1.38,3.08s-2.19,1.12-3.81,1.12c-.81,0-1.55-.11-2.23-.34s-1.39-.6-2.11-1.12l-.49,1.15h-1.81v-.03Z"/>
          <path id="s" class="st0" d="M172.96,16.98c-.08-1.19-.32-2.07-.72-2.62s-.99-.83-1.77-.83-1.45.29-1.95.88c-.5.58-.83,1.44-.99,2.57h5.43ZM174.2,20.48h2.29c-.19,1.59-.83,2.84-1.89,3.75-1.07.91-2.43,1.37-4.1,1.37-2.07,0-3.73-.63-4.96-1.89-1.23-1.26-1.85-2.95-1.85-5.06s.62-3.77,1.87-5.05,2.89-1.92,4.94-1.92,3.48.62,4.52,1.85c1.04,1.24,1.55,3.03,1.55,5.38h-9.17c.05,1.46.36,2.58.92,3.34.56.77,1.35,1.15,2.37,1.15s1.84-.23,2.37-.68c.54-.45.91-1.2,1.14-2.25h0Z"/>
          <path id="t" class="st0" d="M187.17,16.98c-.08-1.19-.32-2.07-.72-2.62s-.99-.83-1.77-.83-1.45.29-1.95.88c-.5.58-.83,1.44-.99,2.57h5.44,0ZM188.41,20.48h2.29c-.19,1.59-.83,2.84-1.89,3.75-1.07.91-2.43,1.37-4.1,1.37-2.07,0-3.73-.63-4.96-1.89-1.23-1.26-1.85-2.95-1.85-5.06s.62-3.77,1.87-5.05,2.89-1.92,4.94-1.92,3.48.62,4.52,1.85c1.04,1.24,1.55,3.03,1.55,5.38h-9.17c.05,1.46.36,2.58.92,3.34.56.77,1.35,1.15,2.37,1.15s1.84-.23,2.37-.68c.54-.45.91-1.2,1.14-2.25h0Z"/>
          <path id="u" class="st0" d="M64.99,30.28h-.22c-.9,0-1.56.27-1.97.81-.41.54-.62,1.42-.64,2.63h-1.29v-4.69h10.6v4.69h-1.29c-.01-1.2-.22-2.07-.63-2.62-.41-.55-1.06-.82-1.96-.82h-.25v7.75c0,.46.06.74.18.87.12.12.44.18.94.18h.96v1.29h-6.53v-1.29h.97c.5,0,.81-.06.93-.18s.18-.41.18-.87v-7.75h.02Z"/>
          <path id="v" class="st0" d="M74.26,40.36v-1.29h.66c.5,0,.81-.06.93-.18s.18-.41.18-.87v-6.67c0-.46-.06-.75-.18-.87s-.43-.18-.93-.18h-.66v-1.28h11.07v4.51h-1.28c-.03-1.29-.24-2.15-.63-2.58-.38-.43-1.16-.65-2.34-.65h-2.7v3.48h.64c.7,0,1.17-.12,1.38-.37.22-.24.35-.81.41-1.69h1.28v5.67h-1.28c-.05-.98-.18-1.61-.4-1.89s-.68-.42-1.38-.42h-.66v3.98h2.95c.98,0,1.66-.23,2.02-.69.37-.46.6-1.4.7-2.82h1.28v4.8h-11.07.01Z"/>
          <path id="w" class="st0" d="M97.05,35.97h1.44c-.11,1.51-.57,2.67-1.38,3.49s-1.91,1.23-3.29,1.23c-.82,0-1.57-.13-2.24-.39s-1.26-.65-1.79-1.19c-.58-.58-1.02-1.24-1.31-2-.3-.76-.45-1.57-.45-2.44s.14-1.67.43-2.4c.29-.73.73-1.39,1.31-1.97.53-.53,1.12-.94,1.78-1.21.66-.27,1.36-.41,2.11-.41.6,0,1.17.09,1.7.28s1.05.48,1.57.88l.34-1.01h1.21v4.64h-1.29c-.13-1.08-.48-1.92-1.04-2.51s-1.28-.89-2.17-.89c-1.03,0-1.84.41-2.43,1.24-.59.83-.88,1.98-.88,3.45s.29,2.47.88,3.23c.58.76,1.41,1.14,2.47,1.14.82,0,1.49-.27,2.01-.81.51-.54.85-1.33,1.02-2.36"/>
          <path id="x" class="st0" d="M100.51,40.36v-1.29h.66c.5,0,.81-.06.93-.18s.18-.41.18-.87v-6.67c0-.46-.06-.75-.18-.87s-.43-.18-.93-.18h-.66v-1.28h6.04v1.28h-.79c-.5,0-.81.06-.94.18-.12.12-.18.41-.18.87v2.51h4.87v-2.51c0-.46-.06-.75-.18-.87s-.43-.18-.93-.18h-.79v-1.28h6.04v1.28h-.66c-.5,0-.81.06-.94.18-.12.12-.18.41-.18.87v6.67c0,.46.06.74.18.87.12.12.44.18.94.18h.66v1.29h-6.04v-1.29h.79c.5,0,.81-.06.93-.18s.18-.41.18-.87v-2.8h-4.87v2.8c0,.46.06.74.18.87.12.12.44.18.94.18h.79v1.29h-6.04Z"/>
        </g>
      </g>
    </g>
  </g>
</svg>